<svg xmlns="http://www.w3.org/2000/svg" viewBox="0 0 1600 800" preserveAspectRatio="xMidYMax slice" role="img" aria-hidden="true" focusable="false">
  <defs>
    <linearGradient id="colFade" x1="0" y1="0" x2="0" y2="1">
      <stop offset="0%" stop-color="#12131b"/>
      <stop offset="100%" stop-color="#0a0a0f"/>
    </linearGradient>
  </defs>
  <g fill="url(#colFade)" stroke="#2a2a35" stroke-width="1">
    <!-- left column -->
    <g transform="translate(40,0)">
      <rect x="0" y="120" width="120" height="20" />
      <rect x="15" y="140" width="90" height="560" />
      <rect x="-5" y="700" width="130" height="26" />
      <path d="M0 140 h120 l-8 -22 h-104 z" />
    </g>
    <!-- right column -->
    <g transform="translate(1360,0)">
      <rect x="0" y="80" width="130" height="22" />
      <rect x="17" y="102" width="96" height="600" />
      <rect x="-6" y="702" width="142" height="28" />
      <path d="M0 102 h130 l-9 -24 h-112 z" />
    </g>
    <!-- distant small columns -->
    <g opacity="0.55">
      <rect x="260" y="440" width="46" height="280" />
      <rect x="250" y="424" width="66" height="16" />
      <rect x="1180" y="470" width="42" height="250" />
      <rect x="1171" y="456" width="60" height="14" />
    </g>
  </g>
</svg>
